<svg width="34" height="35" viewBox="0 0 34 35" fill="none" xmlns="http://www.w3.org/2000/svg">
<path d="M20.5078 21.8984H13.4141C13.1033 21.8984 12.8052 21.775 12.5854 21.5552C12.3657 21.3354 12.2422 21.0374 12.2422 20.7266V13.6641C12.2422 13.3533 12.3657 13.0552 12.5854 12.8354C12.8052 12.6157 13.1033 12.4922 13.4141 12.4922H20.5078C20.8186 12.4922 21.1167 12.6157 21.3365 12.8354C21.5562 13.0552 21.6797 13.3533 21.6797 13.6641V20.7578C21.6715 21.0632 21.5445 21.3533 21.3256 21.5663C21.1067 21.7794 20.8133 21.8985 20.5078 21.8984ZM14.6172 19.5547H19.3047V14.8672H14.6172V19.5547ZM32.75 21.8984H25.6563C25.3455 21.8984 25.0474 21.775 24.8276 21.5552C24.6078 21.3354 24.4844 21.0374 24.4844 20.7266V13.6641C24.4844 13.3533 24.6078 13.0552 24.8276 12.8354C25.0474 12.6157 25.3455 12.4922 25.6563 12.4922H32.75C33.0608 12.4922 33.3589 12.6157 33.5786 12.8354C33.7984 13.0552 33.9219 13.3533 33.9219 13.6641V20.7578C33.9137 21.0632 33.7867 21.3533 33.5678 21.5663C33.3489 21.7794 33.0555 21.8985 32.75 21.8984ZM26.8281 19.5547H31.5781V14.8672H26.8281V19.5547ZM8.26563 21.8984H1.17188C0.861075 21.8984 0.563003 21.775 0.343234 21.5552C0.123465 21.3354 0 21.0374 0 20.7266V13.6641C0 13.3533 0.123465 13.0552 0.343234 12.8354C0.563003 12.6157 0.861075 12.4922 1.17188 12.4922H8.26563C8.57643 12.4922 8.8745 12.6157 9.09427 12.8354C9.31404 13.0552 9.4375 13.3533 9.4375 13.6641V20.7578C9.42936 21.0632 9.3023 21.3533 9.08341 21.5663C8.86452 21.7794 8.57109 21.8985 8.26563 21.8984ZM2.34375 19.5547H7.09375V14.8672H2.34375V19.5547ZM20.5078 9.44531H13.4141C13.1033 9.44531 12.8052 9.32185 12.5854 9.10208C12.3657 8.88231 12.2422 8.58424 12.2422 8.27344V1.17188C12.2422 0.861074 12.3657 0.563003 12.5854 0.343234C12.8052 0.123465 13.1033 0 13.4141 0H20.5078C20.8186 0 21.1167 0.123465 21.3365 0.343234C21.5562 0.563003 21.6797 0.861074 21.6797 1.17188V8.27344C21.6797 8.58424 21.5562 8.88231 21.3365 9.10208C21.1167 9.32185 20.8186 9.44531 20.5078 9.44531ZM14.5859 7.10156H19.3047V2.36719H14.6172L14.5859 7.10156ZM32.75 9.44531H25.6563C25.3455 9.44531 25.0474 9.32185 24.8276 9.10208C24.6078 8.88231 24.4844 8.58424 24.4844 8.27344V1.17188C24.4844 0.861074 24.6078 0.563003 24.8276 0.343234C25.0474 0.123465 25.3455 0 25.6563 0H32.75C33.0608 0 33.3589 0.123465 33.5786 0.343234C33.7984 0.563003 33.9219 0.861074 33.9219 1.17188V8.27344C33.9219 8.58424 33.7984 8.88231 33.5786 9.10208C33.3589 9.32185 33.0608 9.44531 32.75 9.44531ZM26.8281 7.10156H31.5781V2.36719H26.8281V7.10156ZM8.26563 9.44531H1.17188C0.861075 9.44531 0.563003 9.32185 0.343234 9.10208C0.123465 8.88231 0 8.58424 0 8.27344V1.17188C0 0.861074 0.123465 0.563003 0.343234 0.343234C0.563003 0.123465 0.861075 0 1.17188 0H8.26563C8.57643 0 8.8745 0.123465 9.09427 0.343234C9.31404 0.563003 9.4375 0.861074 9.4375 1.17188V8.27344C9.4375 8.58424 9.31404 8.88231 9.09427 9.10208C8.8745 9.32185 8.57643 9.44531 8.26563 9.44531ZM2.34375 7.10156H7.09375V2.36719H2.34375V7.10156ZM20.5078 34.3984H13.4141C13.1033 34.3984 12.8052 34.275 12.5854 34.0552C12.3657 33.8354 12.2422 33.5374 12.2422 33.2266V26.1484C12.2422 25.8376 12.3657 25.5396 12.5854 25.3198C12.8052 25.1 13.1033 24.9766 13.4141 24.9766H20.5078C20.8186 24.9766 21.1167 25.1 21.3365 25.3198C21.5562 25.5396 21.6797 25.8376 21.6797 26.1484V33.25C21.6736 33.5567 21.5474 33.8488 21.3283 34.0635C21.1092 34.2783 20.8146 34.3985 20.5078 34.3984ZM14.6172 32.0547H19.3047V27.3203H14.6172V32.0547ZM32.75 34.3984H25.6563C25.3455 34.3984 25.0474 34.275 24.8276 34.0552C24.6078 33.8354 24.4844 33.5374 24.4844 33.2266V26.1484C24.4844 25.8376 24.6078 25.5396 24.8276 25.3198C25.0474 25.1 25.3455 24.9766 25.6563 24.9766H32.75C33.0608 24.9766 33.3589 25.1 33.5786 25.3198C33.7984 25.5396 33.9219 25.8376 33.9219 26.1484V33.25C33.9157 33.5567 33.7896 33.8488 33.5705 34.0635C33.3514 34.2783 33.0568 34.3985 32.75 34.3984ZM26.8281 32.0547H31.5781V27.3203H26.8281V32.0547ZM8.26563 34.3984H1.17188C0.861075 34.3984 0.563003 34.275 0.343234 34.0552C0.123465 33.8354 0 33.5374 0 33.2266V26.1484C0 25.8376 0.123465 25.5396 0.343234 25.3198C0.563003 25.1 0.861075 24.9766 1.17188 24.9766H8.26563C8.57643 24.9766 8.8745 25.1 9.09427 25.3198C9.31404 25.5396 9.4375 25.8376 9.4375 26.1484V33.25C9.43137 33.5567 9.3052 33.8488 9.08609 34.0635C8.86698 34.2783 8.57241 34.3985 8.26563 34.3984ZM2.34375 32.0547H7.09375V27.3203H2.34375V32.0547Z" fill="#222222"/>
</svg>
