<svg width="32" height="32" viewBox="0 0 32 32" fill="none" xmlns="http://www.w3.org/2000/svg">
<path d="M31.9304 8.86169L28.2087 20.9806C27.9304 21.8437 27.2 22.4191 26.3304 22.4191H11.9652C11.1304 22.4191 10.3304 21.8797 10.0522 21.0885L4.55652 5.8769H1.3913C0.626087 5.8769 0 5.2296 0 4.43845C0 3.6473 0.626087 3 1.3913 3H5.53043C6.12174 3 6.64348 3.39557 6.85217 3.97095L12.5217 19.5422H25.7391L28.6957 9.83264H12.313C11.5478 9.83264 10.9217 9.18534 10.9217 8.39419C10.9217 7.60304 11.5478 6.95574 12.313 6.95574H30.6087C31.0609 6.95574 31.4783 7.20747 31.7217 7.56708C32 7.92669 32.0696 8.43015 31.9304 8.86169ZM12.6609 24.325C12.0696 24.325 11.4783 24.5768 11.0609 25.0083C10.6435 25.4398 10.4 26.0512 10.4 26.6625C10.4 27.2739 10.6435 27.8852 11.0609 28.3167C11.4783 28.7483 12.0696 29 12.6609 29C13.2522 29 13.8435 28.7483 14.2609 28.3167C14.6783 27.8852 14.9217 27.2739 14.9217 26.6625C14.9217 26.0512 14.6783 25.4398 14.2609 25.0083C13.8435 24.5768 13.2522 24.325 12.6609 24.325ZM25.1478 24.325C24.5565 24.325 23.9652 24.5768 23.5478 25.0083C23.1304 25.4398 22.887 26.0512 22.887 26.6625C22.887 27.2739 23.1304 27.8852 23.5478 28.3167C23.9652 28.7483 24.5565 29 25.1478 29C25.7391 29 26.3304 28.7483 26.7478 28.3167C27.1652 27.8852 27.4087 27.2739 27.4087 26.6625C27.4087 26.0512 27.1652 25.4398 26.7478 25.0083C26.3304 24.5768 25.7391 24.325 25.1478 24.325Z" fill="#272932"/>
</svg>
