<svg width="28" height="50" viewBox="0 0 28 50" fill="none" xmlns="http://www.w3.org/2000/svg">
<g clip-path="url(#clip0_20_197)">
<path fill-rule="evenodd" clip-rule="evenodd" d="M0.931616 49.2701C1.96253 50.2451 3.6298 50.2451 4.65816 49.2701L26.4549 28.6101C26.9428 28.1546 27.3313 27.6065 27.5968 26.999C27.8623 26.3916 27.9992 25.7374 27.9992 25.0763C27.9992 24.4152 27.8623 23.761 27.5968 23.1536C27.3313 22.5461 26.9428 21.998 26.4549 21.5426L4.50034 0.730051C4.00208 0.26492 3.34224 0.0034855 2.65483 -0.00115778C1.96742 -0.00580107 1.30398 0.246695 0.799252 0.705051C0.549217 0.931402 0.349156 1.20576 0.211458 1.51112C0.0737594 1.81649 0.0013561 2.14637 -0.00126875 2.48034C-0.0038936 2.8143 0.0633159 3.14524 0.196198 3.45266C0.32908 3.76008 0.524805 4.03744 0.771252 4.26755L20.8651 23.3101C21.1092 23.5378 21.3036 23.8119 21.4365 24.1158C21.5694 24.4196 21.6379 24.7469 21.6379 25.0776C21.6379 25.4082 21.5694 25.7355 21.4365 26.0393C21.3036 26.3432 21.1092 26.6173 20.8651 26.8451L0.931616 45.7376C0.687533 45.9651 0.493157 46.239 0.360329 46.5426C0.227501 46.8463 0.159001 47.1733 0.159001 47.5038C0.159001 47.8343 0.227501 48.1613 0.360329 48.465C0.493157 48.7686 0.687533 49.0426 0.931616 49.2701Z" fill="black"/>
</g>
<defs>
<clipPath id="clip0_20_197">
<rect width="28" height="50" fill="white"/>
</clipPath>
</defs>
</svg>
