<svg width="24" height="24" viewBox="0 0 24 24" fill="none" xmlns="http://www.w3.org/2000/svg">
<path d="M7.52475 15.3304C6.18702 13.7093 5.34213 11.63 5.34213 9.33921C5.34213 4.19383 9.53135 0 14.6711 0C19.8108 0 24 4.19383 24 9.33921C24 14.4846 19.8108 18.6784 14.6711 18.6784C12.418 18.6784 10.3058 17.8678 8.68647 16.4934L1.43454 23.7533C1.25853 23.9295 1.0473 24 0.836082 24C0.624863 24 0.413643 23.9295 0.237625 23.7533C-0.0792065 23.4361 -0.0792065 22.8722 0.237625 22.5551L7.52475 15.3304ZM14.7063 16.9868C18.9307 16.9868 22.3454 13.5683 22.3454 9.33921C22.3454 5.11013 18.9307 1.69163 14.7063 1.69163C10.4818 1.69163 7.06711 5.11013 7.06711 9.33921C7.06711 13.5683 10.4818 16.9868 14.7063 16.9868Z" fill="#6D6F78"/>
</svg>
