<svg width="244" height="61" viewBox="0 0 244 61" fill="none" xmlns="http://www.w3.org/2000/svg">
<path d="M15.616 60.48C12.672 60.48 10.0053 59.7547 7.61599 58.304C5.26932 56.8533 3.41332 54.7627 2.04799 52.032C0.682652 49.2587 -1.4782e-05 45.9947 -1.4782e-05 42.24C-1.4782e-05 35.7547 1.38665 29.76 4.15999 24.256C6.93332 18.7093 11.0293 14.272 16.448 10.944C21.8667 7.57333 28.3733 5.888 35.968 5.888C37.9307 5.888 40.0213 6.03733 42.24 6.336C44.5013 6.63467 46.5493 7.08267 48.384 7.68C49.5787 8.02133 50.176 8.87467 50.176 10.24C50.176 11.3493 49.7493 12.3947 48.896 13.376C48.0853 14.3573 47.1253 14.848 46.016 14.848C45.6747 14.848 45.4187 14.8267 45.248 14.784C43.0293 14.272 41.1307 13.9093 39.552 13.696C37.9733 13.44 36.3093 13.312 34.56 13.312C29.1413 13.312 24.5333 14.6347 20.736 17.28C16.9387 19.8827 14.1013 23.3387 12.224 27.648C10.3467 31.9573 9.40799 36.608 9.40799 41.6C9.40799 45.2267 10.112 48.0427 11.52 50.048C12.9707 52.0107 14.848 52.992 17.152 52.992C19.7547 52.992 22.0373 51.9253 24 49.792C25.9627 47.6587 27.7547 44.2027 29.376 39.424C30.9973 34.6453 32.5973 28.16 34.176 19.968C34.432 18.7733 34.944 17.9627 35.712 17.536C36.48 17.1093 37.504 16.896 38.784 16.896C41.8133 16.896 43.328 17.8773 43.328 19.84C43.328 20.1813 43.264 20.608 43.136 21.12C42.0267 25.2587 41.0027 29.8453 40.064 34.88C39.168 39.872 38.72 43.6693 38.72 46.272C38.72 48.576 39.0613 50.2613 39.744 51.328C40.4267 52.352 41.472 52.864 42.88 52.864C44.2453 52.864 45.5467 52.416 46.784 51.52C48.0213 50.5813 49.5787 49.0027 51.456 46.784C51.968 46.1867 52.544 45.888 53.184 45.888C53.7387 45.888 54.1653 46.144 54.464 46.656C54.8053 47.168 54.976 47.872 54.976 48.768C54.976 50.432 54.5707 51.7547 53.76 52.736C51.6693 55.2533 49.6213 57.1733 47.616 58.496C45.6107 59.8187 43.1573 60.48 40.256 60.48C37.2693 60.48 34.8587 59.6267 33.024 57.92C31.1893 56.1707 30.0373 53.7173 29.568 50.56C26.4107 57.1733 21.76 60.48 15.616 60.48ZM74.0565 45.888C74.6112 45.888 75.0378 46.144 75.3365 46.656C75.6778 47.168 75.8485 47.872 75.8485 48.768C75.8485 50.4747 75.4432 51.7973 74.6325 52.736C72.7978 54.9973 70.7925 56.8533 68.6165 58.304C66.4832 59.7547 64.0512 60.48 61.3205 60.48C57.5658 60.48 54.7712 58.7733 52.9365 55.36C51.1445 51.9467 50.2485 47.5307 50.2485 42.112C50.2485 36.9067 50.9098 30.976 52.2325 24.32C53.5978 17.664 55.5818 11.9467 58.1845 7.168C60.8298 2.38933 63.9658 0 67.5925 0C69.6405 0 71.2405 0.96 72.3925 2.88C73.5872 4.75734 74.1845 7.46667 74.1845 11.008C74.1845 16.0853 72.7765 21.9733 69.9605 28.672C67.1445 35.3707 63.3258 42.0053 58.5045 48.576C58.8032 50.3253 59.2938 51.584 59.9765 52.352C60.6592 53.0773 61.5552 53.44 62.6645 53.44C64.4138 53.44 65.9498 52.9493 67.2725 51.968C68.5952 50.944 70.2805 49.216 72.3285 46.784C72.8405 46.1867 73.4165 45.888 74.0565 45.888ZM66.1845 6.336C65.2032 6.336 64.0938 8.10667 62.8565 11.648C61.6192 15.1893 60.5312 19.584 59.5925 24.832C58.6538 30.08 58.1418 35.1147 58.0565 39.936C61.0858 34.944 63.4965 29.952 65.2885 24.96C67.0805 19.9253 67.9765 15.3387 67.9765 11.2C67.9765 7.95734 67.3792 6.336 66.1845 6.336ZM94.9315 45.888C95.4862 45.888 95.9128 46.144 96.2115 46.656C96.5528 47.168 96.7235 47.872 96.7235 48.768C96.7235 50.4747 96.3182 51.7973 95.5075 52.736C93.6728 54.9973 91.6675 56.8533 89.4915 58.304C87.3582 59.7547 84.9262 60.48 82.1955 60.48C78.4408 60.48 75.6462 58.7733 73.8115 55.36C72.0195 51.9467 71.1235 47.5307 71.1235 42.112C71.1235 36.9067 71.7848 30.976 73.1075 24.32C74.4728 17.664 76.4568 11.9467 79.0595 7.168C81.7048 2.38933 84.8408 0 88.4675 0C90.5155 0 92.1155 0.96 93.2675 2.88C94.4622 4.75734 95.0595 7.46667 95.0595 11.008C95.0595 16.0853 93.6515 21.9733 90.8355 28.672C88.0195 35.3707 84.2008 42.0053 79.3795 48.576C79.6782 50.3253 80.1688 51.584 80.8515 52.352C81.5342 53.0773 82.4302 53.44 83.5395 53.44C85.2888 53.44 86.8248 52.9493 88.1475 51.968C89.4702 50.944 91.1555 49.216 93.2035 46.784C93.7155 46.1867 94.2915 45.888 94.9315 45.888ZM87.0595 6.336C86.0782 6.336 84.9688 8.10667 83.7315 11.648C82.4942 15.1893 81.4062 19.584 80.4675 24.832C79.5288 30.08 79.0168 35.1147 78.9315 39.936C81.9608 34.944 84.3715 29.952 86.1635 24.96C87.9555 19.9253 88.8515 15.3387 88.8515 11.2C88.8515 7.95734 88.2542 6.336 87.0595 6.336ZM109.406 60.672C103.732 60.672 99.1878 59.6053 95.7745 57.472C92.3612 55.296 90.6545 51.9893 90.6545 47.552C90.6545 45.2053 91.0598 43.4133 91.8705 42.176C92.6812 40.9387 93.8758 40.32 95.4545 40.32C96.6065 40.32 97.5452 40.6187 98.2705 41.216C98.9958 41.8133 99.3585 42.5813 99.3585 43.52C99.3585 44.3733 99.2945 45.12 99.1665 45.76C99.1665 45.9307 99.1238 46.2293 99.0385 46.656C98.9958 47.0827 98.9745 47.5307 98.9745 48C98.9745 49.92 99.9345 51.3493 101.854 52.288C103.817 53.2267 106.548 53.696 110.046 53.696C113.673 53.696 116.51 53.056 118.558 51.776C120.606 50.4533 121.63 48.6187 121.63 46.272C121.63 44.8213 121.161 43.584 120.222 42.56C119.284 41.4933 118.11 40.6187 116.702 39.936C115.294 39.2107 113.31 38.336 110.75 37.312C107.465 36.032 104.777 34.816 102.686 33.664C100.638 32.512 98.8678 30.9547 97.3745 28.992C95.9238 26.9867 95.1985 24.512 95.1985 21.568C95.1985 18.496 96.0092 15.7653 97.6305 13.376C99.2945 10.9867 101.662 9.13067 104.734 7.808C107.849 6.48534 111.497 5.824 115.678 5.824C118.793 5.824 121.652 6.29333 124.254 7.232C126.857 8.128 128.926 9.51467 130.462 11.392C132.041 13.2693 132.83 15.5733 132.83 18.304C132.83 20.992 132.425 23.0187 131.614 24.384C130.804 25.7493 129.609 26.432 128.03 26.432C126.921 26.432 125.982 26.0907 125.214 25.408C124.489 24.7253 124.126 23.9147 124.126 22.976C124.126 22.1653 124.19 21.4187 124.318 20.736C124.446 19.456 124.51 18.6453 124.51 18.304C124.51 16.512 123.636 15.1467 121.886 14.208C120.137 13.2693 117.961 12.8 115.358 12.8C111.689 12.8 108.873 13.4827 106.91 14.848C104.99 16.1707 104.03 18.048 104.03 20.48C104.03 22.1013 104.521 23.488 105.502 24.64C106.526 25.792 107.785 26.752 109.278 27.52C110.772 28.288 112.862 29.2053 115.55 30.272C118.793 31.5947 121.396 32.7893 123.358 33.856C125.321 34.9227 126.985 36.3733 128.35 38.208C129.758 40.0427 130.462 42.304 130.462 44.992C130.462 50.0267 128.542 53.9093 124.702 56.64C120.905 59.328 115.806 60.672 109.406 60.672ZM163.844 45.888C164.399 45.888 164.826 46.144 165.124 46.656C165.466 47.168 165.636 47.872 165.636 48.768C165.636 50.4747 165.231 51.7973 164.42 52.736C162.586 54.9973 160.58 56.8533 158.404 58.304C156.228 59.7547 153.732 60.48 150.916 60.48C142.212 60.48 137.86 54.3573 137.86 42.112C137.86 40.2347 137.924 38.336 138.052 36.416H135.556C134.276 36.416 133.402 36.1813 132.932 35.712C132.506 35.2427 132.292 34.496 132.292 33.472C132.292 31.0827 133.252 29.888 135.172 29.888H138.82C139.546 25.1947 140.655 20.9067 142.148 17.024C143.642 13.1413 145.434 10.048 147.524 7.744C149.658 5.44 151.94 4.288 154.372 4.288C156.164 4.288 157.572 5.07734 158.596 6.656C159.62 8.23467 160.132 10.2187 160.132 12.608C160.132 19.2213 157.359 24.9813 151.812 29.888H158.98C159.663 29.888 160.154 30.0373 160.452 30.336C160.751 30.6347 160.9 31.1893 160.9 32C160.9 34.944 158.49 36.416 153.668 36.416H145.86C145.775 38.5493 145.732 40.2133 145.732 41.408C145.732 45.8453 146.244 48.96 147.268 50.752C148.335 52.544 149.999 53.44 152.26 53.44C154.095 53.44 155.716 52.8853 157.124 51.776C158.532 50.6667 160.196 49.0027 162.116 46.784C162.628 46.1867 163.204 45.888 163.844 45.888ZM152.644 10.432C152.004 10.432 151.279 11.2427 150.468 12.864C149.7 14.4427 148.954 16.6613 148.228 19.52C147.546 22.336 146.97 25.472 146.5 28.928C149.018 26.752 150.895 24.32 152.132 21.632C153.412 18.9013 154.052 16.4267 154.052 14.208C154.052 11.6907 153.583 10.432 152.644 10.432ZM193.065 40.512C193.62 40.512 194.047 40.7893 194.345 41.344C194.644 41.8987 194.793 42.6027 194.793 43.456C194.793 45.504 194.175 46.72 192.937 47.104C190.377 48 187.561 48.512 184.489 48.64C183.679 52.224 182.079 55.104 179.689 57.28C177.3 59.4133 174.591 60.48 171.561 60.48C169.001 60.48 166.804 59.8613 164.969 58.624C163.177 57.3867 161.812 55.744 160.873 53.696C159.935 51.648 159.465 49.4293 159.465 47.04C159.465 43.7973 160.084 40.9173 161.321 38.4C162.559 35.84 164.265 33.856 166.441 32.448C168.617 30.9973 171.028 30.272 173.673 30.272C176.916 30.272 179.519 31.4027 181.481 33.664C183.487 35.8827 184.66 38.6347 185.001 41.92C187.007 41.792 189.396 41.3653 192.169 40.64C192.511 40.5547 192.809 40.512 193.065 40.512ZM172.073 53.696C173.439 53.696 174.612 53.1413 175.593 52.032C176.617 50.9227 177.3 49.3227 177.641 47.232C176.319 46.336 175.295 45.1627 174.569 43.712C173.887 42.2613 173.545 40.7253 173.545 39.104C173.545 38.4213 173.609 37.7387 173.737 37.056H173.417C171.711 37.056 170.281 37.888 169.129 39.552C168.02 41.1733 167.465 43.4773 167.465 46.464C167.465 48.8107 167.913 50.6027 168.809 51.84C169.748 53.0773 170.836 53.696 172.073 53.696ZM193.844 60.48C192.223 60.48 191.071 59.6267 190.388 57.92C189.748 56.2133 189.428 53.4827 189.428 49.728C189.428 44.1813 190.218 38.912 191.796 33.92C192.18 32.6827 192.799 31.7867 193.652 31.232C194.548 30.6347 195.786 30.336 197.364 30.336C198.218 30.336 198.815 30.4427 199.156 30.656C199.498 30.8693 199.668 31.2747 199.668 31.872C199.668 32.5547 199.348 34.0907 198.708 36.48C198.282 38.1867 197.94 39.68 197.684 40.96C197.428 42.24 197.215 43.8187 197.044 45.696C198.452 42.0267 200.031 39.04 201.78 36.736C203.53 34.432 205.236 32.7893 206.9 31.808C208.607 30.8267 210.164 30.336 211.572 30.336C214.346 30.336 215.732 31.7227 215.732 34.496C215.732 35.0507 215.54 36.3947 215.156 38.528C214.815 40.2347 214.644 41.3013 214.644 41.728C214.644 43.2213 215.178 43.968 216.244 43.968C217.439 43.968 218.975 43.0293 220.852 41.152C221.407 40.5973 221.983 40.32 222.58 40.32C223.135 40.32 223.562 40.576 223.86 41.088C224.202 41.5573 224.372 42.1973 224.372 43.008C224.372 44.5867 223.946 45.824 223.092 46.72C221.898 47.9573 220.49 49.024 218.868 49.92C217.29 50.7733 215.604 51.2 213.812 51.2C211.551 51.2 209.823 50.624 208.628 49.472C207.476 48.32 206.9 46.7627 206.9 44.8C206.9 44.16 206.964 43.52 207.092 42.88C207.178 42.0267 207.22 41.4507 207.22 41.152C207.22 40.4693 206.986 40.128 206.516 40.128C205.876 40.128 205.023 40.8533 203.956 42.304C202.932 43.712 201.908 45.5893 200.884 47.936C199.86 50.2827 199.028 52.7573 198.388 55.36C197.919 57.3653 197.364 58.7307 196.724 59.456C196.127 60.1387 195.167 60.48 193.844 60.48ZM241.337 47.808C241.892 47.808 242.319 48.064 242.617 48.576C242.959 49.088 243.129 49.792 243.129 50.688C243.129 52.224 242.767 53.5467 242.041 54.656C240.847 56.4907 239.268 57.92 237.305 58.944C235.385 59.968 233.081 60.48 230.393 60.48C226.297 60.48 223.119 59.264 220.857 56.832C218.596 54.3573 217.465 51.0293 217.465 46.848C217.465 43.904 218.084 41.1733 219.321 38.656C220.559 36.096 222.265 34.0693 224.441 32.576C226.66 31.0827 229.156 30.336 231.929 30.336C234.404 30.336 236.388 31.0827 237.881 32.576C239.375 34.0267 240.121 36.0107 240.121 38.528C240.121 41.472 239.055 44.0107 236.921 46.144C234.831 48.2347 231.247 49.8987 226.169 51.136C227.193 53.0987 228.921 54.08 231.353 54.08C233.103 54.08 234.532 53.6747 235.641 52.864C236.793 52.0533 238.116 50.688 239.609 48.768C240.121 48.128 240.697 47.808 241.337 47.808ZM230.841 36.608C229.263 36.608 227.919 37.5253 226.809 39.36C225.743 41.1947 225.209 43.4133 225.209 46.016V46.144C227.727 45.5467 229.711 44.6507 231.161 43.456C232.612 42.2613 233.337 40.8747 233.337 39.296C233.337 38.4853 233.103 37.8453 232.633 37.376C232.207 36.864 231.609 36.608 230.841 36.608Z" fill="#8377D1"/>
</svg>
